<mxfile host="app.diagrams.net" agent="Mozilla/5.0 (Windows NT 10.0; Win64; x64) AppleWebKit/537.36 (KHTML, like Gecko) Chrome/137.0.0.0 Safari/537.36" version="27.1.5">
  <diagram name="PaginÄƒ-1" id="tPUtxfRcci7yQtmyHBNP">
    <mxGraphModel dx="1388" dy="646" grid="1" gridSize="10" guides="1" tooltips="1" connect="1" arrows="1" fold="1" page="1" pageScale="1" pageWidth="827" pageHeight="1169" math="0" shadow="0">
      <root>
        <mxCell id="0" />
        <mxCell id="1" parent="0" />
        <mxCell id="e-eenU64WSXm0HByO18V-1" value="OBC" style="rounded=1;whiteSpace=wrap;html=1;" vertex="1" parent="1">
          <mxGeometry x="40" y="130" width="60" height="290" as="geometry" />
        </mxCell>
        <mxCell id="e-eenU64WSXm0HByO18V-2" value="" style="rounded=1;whiteSpace=wrap;html=1;" vertex="1" parent="1">
          <mxGeometry x="160" y="130" width="440" height="290" as="geometry" />
        </mxCell>
        <mxCell id="e-eenU64WSXm0HByO18V-3" value="FPGA" style="rounded=1;whiteSpace=wrap;html=1;" vertex="1" parent="1">
          <mxGeometry x="660" y="130" width="80" height="290" as="geometry" />
        </mxCell>
        <mxCell id="e-eenU64WSXm0HByO18V-4" value="MCU" style="text;strokeColor=none;align=center;fillColor=none;html=1;verticalAlign=middle;whiteSpace=wrap;rounded=0;" vertex="1" parent="1">
          <mxGeometry x="340" y="140" width="60" height="30" as="geometry" />
        </mxCell>
        <mxCell id="e-eenU64WSXm0HByO18V-6" value="PUS 8&amp;nbsp;&lt;div&gt;Task&lt;/div&gt;" style="rounded=1;whiteSpace=wrap;html=1;" vertex="1" parent="1">
          <mxGeometry x="390" y="195" width="110" height="52.5" as="geometry" />
        </mxCell>
        <mxCell id="e-eenU64WSXm0HByO18V-7" value="UART&amp;nbsp;&lt;div&gt;Controller 2&lt;/div&gt;" style="rounded=1;whiteSpace=wrap;html=1;" vertex="1" parent="1">
          <mxGeometry x="180" y="175" width="60" height="200" as="geometry" />
        </mxCell>
        <mxCell id="e-eenU64WSXm0HByO18V-8" value="UART&amp;nbsp;&lt;div&gt;Controller&amp;nbsp;&lt;/div&gt;&lt;div&gt;1&lt;/div&gt;" style="rounded=1;whiteSpace=wrap;html=1;" vertex="1" parent="1">
          <mxGeometry x="520" y="175" width="60" height="205" as="geometry" />
        </mxCell>
        <mxCell id="e-eenU64WSXm0HByO18V-10" value="UART_IN_OBC&lt;div&gt;Task&lt;/div&gt;" style="rounded=1;whiteSpace=wrap;html=1;" vertex="1" parent="1">
          <mxGeometry x="260" y="195" width="110" height="52.5" as="geometry" />
        </mxCell>
        <mxCell id="e-eenU64WSXm0HByO18V-13" value="" style="endArrow=classic;html=1;rounded=0;exitX=1;exitY=0.5;exitDx=0;exitDy=0;entryX=0;entryY=0.5;entryDx=0;entryDy=0;strokeColor=#FF0000;" edge="1" parent="1" source="e-eenU64WSXm0HByO18V-10" target="e-eenU64WSXm0HByO18V-6">
          <mxGeometry width="50" height="50" relative="1" as="geometry">
            <mxPoint x="280" y="310" as="sourcePoint" />
            <mxPoint x="330" y="260" as="targetPoint" />
          </mxGeometry>
        </mxCell>
        <mxCell id="e-eenU64WSXm0HByO18V-22" value="UART_IN_FPGA&lt;div&gt;Task&lt;/div&gt;" style="rounded=1;whiteSpace=wrap;html=1;" vertex="1" parent="1">
          <mxGeometry x="390" y="310" width="110" height="52.5" as="geometry" />
        </mxCell>
        <mxCell id="e-eenU64WSXm0HByO18V-23" value="UART_OUT_OBC&lt;div&gt;Task&lt;/div&gt;" style="rounded=1;whiteSpace=wrap;html=1;" vertex="1" parent="1">
          <mxGeometry x="260" y="310" width="110" height="52.5" as="geometry" />
        </mxCell>
        <mxCell id="e-eenU64WSXm0HByO18V-24" value="" style="endArrow=classic;html=1;rounded=0;exitX=1;exitY=0.25;exitDx=0;exitDy=0;entryX=0.028;entryY=0.138;entryDx=0;entryDy=0;entryPerimeter=0;fillColor=#FF0000;strokeColor=#FF0000;" edge="1" parent="1" source="e-eenU64WSXm0HByO18V-1" target="e-eenU64WSXm0HByO18V-7">
          <mxGeometry width="50" height="50" relative="1" as="geometry">
            <mxPoint x="260" y="320" as="sourcePoint" />
            <mxPoint x="310" y="270" as="targetPoint" />
          </mxGeometry>
        </mxCell>
        <mxCell id="e-eenU64WSXm0HByO18V-25" value="" style="endArrow=classic;html=1;rounded=0;entryX=0.993;entryY=0.669;entryDx=0;entryDy=0;entryPerimeter=0;strokeColor=#80FF00;" edge="1" parent="1" target="e-eenU64WSXm0HByO18V-1">
          <mxGeometry width="50" height="50" relative="1" as="geometry">
            <mxPoint x="180" y="324" as="sourcePoint" />
            <mxPoint x="310" y="270" as="targetPoint" />
          </mxGeometry>
        </mxCell>
        <mxCell id="e-eenU64WSXm0HByO18V-26" value="" style="endArrow=classic;html=1;rounded=0;exitX=1;exitY=0.233;exitDx=0;exitDy=0;entryX=0;entryY=0.5;entryDx=0;entryDy=0;fillColor=#FF0000;strokeColor=#FF0000;exitPerimeter=0;" edge="1" parent="1" source="e-eenU64WSXm0HByO18V-7" target="e-eenU64WSXm0HByO18V-10">
          <mxGeometry width="50" height="50" relative="1" as="geometry">
            <mxPoint x="120" y="200" as="sourcePoint" />
            <mxPoint x="202" y="200" as="targetPoint" />
          </mxGeometry>
        </mxCell>
        <mxCell id="e-eenU64WSXm0HByO18V-27" value="" style="endArrow=classic;html=1;rounded=0;exitX=1;exitY=0.5;exitDx=0;exitDy=0;entryX=0;entryY=0.225;entryDx=0;entryDy=0;strokeColor=#FF0000;entryPerimeter=0;" edge="1" parent="1" source="e-eenU64WSXm0HByO18V-6" target="e-eenU64WSXm0HByO18V-8">
          <mxGeometry width="50" height="50" relative="1" as="geometry">
            <mxPoint x="380" y="230" as="sourcePoint" />
            <mxPoint x="400" y="230" as="targetPoint" />
          </mxGeometry>
        </mxCell>
        <mxCell id="e-eenU64WSXm0HByO18V-29" value="" style="endArrow=classic;html=1;rounded=0;exitX=1;exitY=0.25;exitDx=0;exitDy=0;entryX=0.01;entryY=0.331;entryDx=0;entryDy=0;strokeColor=#FF0000;entryPerimeter=0;" edge="1" parent="1" source="e-eenU64WSXm0HByO18V-8" target="e-eenU64WSXm0HByO18V-3">
          <mxGeometry width="50" height="50" relative="1" as="geometry">
            <mxPoint x="500" y="250" as="sourcePoint" />
            <mxPoint x="520" y="250" as="targetPoint" />
          </mxGeometry>
        </mxCell>
        <mxCell id="e-eenU64WSXm0HByO18V-30" value="" style="endArrow=classic;html=1;rounded=0;entryX=0.999;entryY=0.807;entryDx=0;entryDy=0;entryPerimeter=0;strokeColor=#80FF00;exitX=0;exitY=0.5;exitDx=0;exitDy=0;" edge="1" parent="1" source="e-eenU64WSXm0HByO18V-23" target="e-eenU64WSXm0HByO18V-7">
          <mxGeometry width="50" height="50" relative="1" as="geometry">
            <mxPoint x="220" y="320" as="sourcePoint" />
            <mxPoint x="140" y="320" as="targetPoint" />
          </mxGeometry>
        </mxCell>
        <mxCell id="e-eenU64WSXm0HByO18V-31" value="" style="endArrow=classic;html=1;rounded=0;entryX=1.019;entryY=0.808;entryDx=0;entryDy=0;entryPerimeter=0;strokeColor=#80FF00;exitX=0;exitY=0.5;exitDx=0;exitDy=0;" edge="1" parent="1" source="e-eenU64WSXm0HByO18V-22">
          <mxGeometry width="50" height="50" relative="1" as="geometry">
            <mxPoint x="389" y="335.75" as="sourcePoint" />
            <mxPoint x="370" y="336.75" as="targetPoint" />
          </mxGeometry>
        </mxCell>
        <mxCell id="e-eenU64WSXm0HByO18V-32" value="" style="endArrow=classic;html=1;rounded=0;entryX=1;entryY=0.5;entryDx=0;entryDy=0;strokeColor=#80FF00;exitX=0;exitY=0.5;exitDx=0;exitDy=0;" edge="1" parent="1" target="e-eenU64WSXm0HByO18V-22">
          <mxGeometry width="50" height="50" relative="1" as="geometry">
            <mxPoint x="520" y="335.75" as="sourcePoint" />
            <mxPoint x="501" y="336.75" as="targetPoint" />
          </mxGeometry>
        </mxCell>
        <mxCell id="e-eenU64WSXm0HByO18V-34" value="" style="endArrow=classic;html=1;rounded=0;entryX=1;entryY=0.75;entryDx=0;entryDy=0;strokeColor=#80FF00;exitX=0.013;exitY=0.682;exitDx=0;exitDy=0;exitPerimeter=0;" edge="1" parent="1" source="e-eenU64WSXm0HByO18V-3" target="e-eenU64WSXm0HByO18V-8">
          <mxGeometry width="50" height="50" relative="1" as="geometry">
            <mxPoint x="629" y="310" as="sourcePoint" />
            <mxPoint x="610" y="311" as="targetPoint" />
          </mxGeometry>
        </mxCell>
      </root>
    </mxGraphModel>
  </diagram>
</mxfile>
